# xmcd
#
# Track frame offsets:
#	150
#	10192
#	23049
#	36296
#	49313
#	60805
#	73677
#	87339
#	97251
#	117208
#	126850
#	135752
#	145064
#	157131
#	169448
#	183355
#	193632
#	204614
#	216186
#	229378
#
# Disc length: 3208 seconds
#
# Revision: 0
# Processed by: cddbd v1.5.1PL2 Copyright (c) Steve Scherf et al.
# Submitted via: dBpowerAMP V4.0
#
DISCID=220c8614
DTITLE=Various Artist - Instrumental Favourites
DYEAR=2002
DGENRE=Instrumental
TTITLE0=01 - Sail along silvery moon - Billie Vaughn
TTITLE1=02 - Midnight in Moscow - Kenny Ball
TTITLE2=03 - Telstar - The Tornados
TTITLE3=04 - Stranger on the shore - Acker Bilk
TTITLE4=05 - Last Date - Trevor Dawe
TTITLE5=06 - Charmaine - Mantovani
TTITLE6=07 - Wheels - Billy Vaughn
TTITLE7=08 - Mouldy old dough - Lieutenant Pigeon
TTITLE8=09 - The lonely Shepherd - Nino Salkino
TTITLE9=10 - Yakety sax - Boots Randolph
TTITLE10=11 - Duelling Banjos - Nashville session Musicians
TTITLE11=12 - Raunchy - Bill Justis
TTITLE12=13 - Ballade pour Adeline - Michele Delon
TTITLE13=Green Leaves of summer - Kenny Ball
TTITLE14=15 - II silenzio - Louis Valdez
TTITLE15=16 - Tequila - The Champs
TTITLE16=17 - Marie Elena - The Golden Guitars
TTITLE17=18 - Love is Blue - Billy Vaughn
TTITLE18=19 - Peter Gunn theme - Duane Eddy
TTITLE19=20 - Wonderland by night - Louis Valdez
EXTD=
EXTT0=
EXTT1=
EXTT2=
EXTT3=
EXTT4=
EXTT5=
EXTT6=
EXTT7=
EXTT8=
EXTT9=
EXTT10=
EXTT11=
EXTT12=
EXTT13=
EXTT14=
EXTT15=
EXTT16=
EXTT17=
EXTT18=
EXTT19=
PLAYORDER=
